<?xml version="1.0" encoding="UTF-8"?>
<svg width="198px" height="50px" viewBox="0 0 198 50" version="1.1" xmlns="http://www.w3.org/2000/svg" xmlns:xlink="http://www.w3.org/1999/xlink">
    <!-- Generator: Sketch 62 (91390) - https://sketch.com -->
    <title>LogoSVG</title>
    <desc>Created with Sketch.</desc>
    <g id="Page-1" stroke="none" stroke-width="1" fill="none" fill-rule="evenodd">
        <g id="Home" transform="translate(-619.000000, -375.000000)" fill="#FFFFFF" fill-rule="nonzero">
            <g id="LogoSVG" transform="translate(619.000000, 375.000000)">
                <path d="M19.3150685,49.8630137 C31.0958904,49.8630137 40.7534247,41.369863 40.7534247,30 C40.7534247,22.0547945 34.7260274,17.3972603 27.8082192,17.3972603 C23.2876712,17.3972603 19.6575342,18.8356164 16.9178082,20.890411 C17.6712329,19.0410959 18.7671233,17.3972603 20.0684932,16.0958904 C22.4657534,13.6986301 25.8219178,12.260274 29.4520548,12.260274 C32.5342466,12.260274 36.1643836,13.8356164 38.630137,15.9589041 L45.7534247,4.93150685 C41.7808219,1.71232877 36.1643836,-1.94669243e-14 29.6575342,-1.94669243e-14 C20.890411,-1.94669243e-14 14.2465753,3.28767123 9.45205479,8.08219178 C3.15068493,14.3835616 0,23.5616438 0,31.7808219 C0,36.9863014 1.78082192,41.4383562 5,44.6575342 C8.28767123,47.9452055 13.2876712,49.8630137 19.3150685,49.8630137 Z M19.2465753,38.630137 C17.8767123,38.630137 16.7123288,38.0821918 15.9589041,37.3287671 C15.2054795,36.5753425 14.7945205,35.4794521 14.7945205,34.2465753 C14.7945205,30.6849315 17.3287671,27.3287671 20.890411,27.3287671 C23.5616438,27.3287671 25.3424658,29.2465753 25.3424658,31.7123288 C25.3424658,35.2739726 22.8082192,38.630137 19.2465753,38.630137 Z M84.9315068,49.8630137 C96.7123288,49.8630137 106.369863,41.369863 106.369863,30 C106.369863,22.0547945 100.342466,17.3972603 93.4246575,17.3972603 C88.9041096,17.3972603 85.2739726,18.8356164 82.5342466,20.890411 C83.2876712,19.0410959 84.3835616,17.3972603 85.6849315,16.0958904 C88.0821918,13.6986301 91.4383562,12.260274 95.0684932,12.260274 C98.1506849,12.260274 101.780822,13.8356164 104.246575,15.9589041 L111.369863,4.93150685 C107.39726,1.71232877 101.780822,-1.94669243e-14 95.2739726,-1.94669243e-14 C86.5068493,-1.94669243e-14 79.8630137,3.28767123 75.0684932,8.08219178 C68.7671233,14.3835616 65.6164384,23.5616438 65.6164384,31.7808219 C65.6164384,36.9863014 67.3972603,41.4383562 70.6164384,44.6575342 C73.9041096,47.9452055 78.9041096,49.8630137 84.9315068,49.8630137 Z M84.8630137,38.630137 C83.4931507,38.630137 82.3287671,38.0821918 81.5753425,37.3287671 C80.8219178,36.5753425 80.4109589,35.4794521 80.4109589,34.2465753 C80.4109589,30.6849315 82.9452055,27.3287671 86.5068493,27.3287671 C89.1780822,27.3287671 90.9589041,29.2465753 90.9589041,31.7123288 C90.9589041,35.2739726 88.4246575,38.630137 84.8630137,38.630137 Z M150.547945,49.8630137 C162.328767,49.8630137 171.986301,41.369863 171.986301,30 C171.986301,22.0547945 165.958904,17.3972603 159.041096,17.3972603 C154.520548,17.3972603 150.890411,18.8356164 148.150685,20.890411 C148.90411,19.0410959 150,17.3972603 151.30137,16.0958904 C153.69863,13.6986301 157.054795,12.260274 160.684932,12.260274 C163.767123,12.260274 167.39726,13.8356164 169.863014,15.9589041 L176.986301,4.93150685 C173.013699,1.71232877 167.39726,-1.94669243e-14 160.890411,-1.94669243e-14 C152.123288,-1.94669243e-14 145.479452,3.28767123 140.684932,8.08219178 C134.383562,14.3835616 131.232877,23.5616438 131.232877,31.7808219 C131.232877,36.9863014 133.013699,41.4383562 136.232877,44.6575342 C139.520548,47.9452055 144.520548,49.8630137 150.547945,49.8630137 Z M150.479452,38.630137 C149.109589,38.630137 147.945205,38.0821918 147.191781,37.3287671 C146.438356,36.5753425 146.027397,35.4794521 146.027397,34.2465753 C146.027397,30.6849315 148.561644,27.3287671 152.123288,27.3287671 C154.794521,27.3287671 156.575342,29.2465753 156.575342,31.7123288 C156.575342,35.2739726 154.041096,38.630137 150.479452,38.630137 Z" id="666" opacity="0.5"></path>
                <path d="M24.0753425,48.9041096 L28.4589041,32.6027397 L55.7191781,0.95890411 L36.7465753,0.95890411 L24.2808219,16.9863014 L20.3767123,0.95890411 L3.52739726,0.95890411 L12.9109589,30.6164384 L8.04794521,48.9041096 L24.0753425,48.9041096 Z M53.0479452,48.9041096 L57.2945205,33.1506849 L41.4041096,33.1506849 L37.1575342,48.9041096 L53.0479452,48.9041096 Z M97.6369863,48.9041096 L101.335616,35.2054795 L79.4863014,35.2054795 L88.6643836,0.95890411 L72.6369863,0.95890411 L59.760274,48.9041096 L97.6369863,48.9041096 Z M118.80137,48.9041096 L123.047945,33.1506849 L107.157534,33.1506849 L102.910959,48.9041096 L118.80137,48.9041096 Z M146.335616,48.9041096 C157.431507,48.9041096 165.719178,45.8219178 171.472603,40.0684932 C176.609589,34.9315068 179.349315,28.3561644 179.349315,21.1643836 C179.349315,15.3424658 177.705479,10.6849315 174.143836,7.12328767 C170.513699,3.49315068 164.691781,0.95890411 155.376712,0.95890411 L138.390411,0.95890411 L125.513699,48.9041096 L146.335616,48.9041096 Z M148.116438,34.9315068 L145.308219,34.9315068 L150.650685,14.9315068 L153.321918,14.9315068 C157.157534,14.9315068 159.554795,15.8219178 161.061644,17.3287671 C162.294521,18.5616438 163.047945,20.2739726 163.047945,22.8767123 C163.047945,25.8219178 161.609589,29.0410959 159.623288,31.0273973 C157.157534,33.4931507 152.979452,34.9315068 148.116438,34.9315068 Z M193.253425,48.9041096 L197.5,33.1506849 L181.609589,33.1506849 L177.363014,48.9041096 L193.253425,48.9041096 Z" id="Y.L.D." opacity="0.75"></path>
            </g>
        </g>
    </g>
</svg>